Coordinates
version=1
nRows=16
nColumns=36
inDegrees=yes

Units are S.I. units (second, meters, Newtons, ...)
If the header above contains a line with 'inDegrees', this indicates whether rotational values are in degrees (yes) or radians (no).

endheader
time	pelvis_tilt	pelvis_list	pelvis_rotation	pelvis_tx	pelvis_ty	pelvis_tz	hip_flexion_r	hip_adduction_r	hip_rotation_r	knee_angle_r	knee_angle_r_beta	ankle_angle_r	subtalar_angle_r	mtp_angle_r	hip_flexion_l	hip_adduction_l	hip_rotation_l	knee_angle_l	knee_angle_l_beta	ankle_angle_l	subtalar_angle_l	mtp_angle_l	lumbar_extension	lumbar_bending	lumbar_rotation	arm_flex_r	arm_add_r	arm_rot_r	elbow_flex_r	pro_sup_r	arm_flex_l	arm_add_l	arm_rot_l	elbow_flex_l	pro_sup_l
      0.00000000	      3.46243108	     -2.18126432	     -0.20974795	     -0.89491699	      1.26980061	     -0.08603032	     -5.49931578	      2.77862373	     -0.33684424	      7.32662565	      0.12787374	      6.26052574	    -13.17476925	     -6.63730465	     -8.98713549	     -3.39760937	      1.98119784	      0.70891071	      0.01237283	      8.04908694	     -5.99532273	     -6.63730465	     -8.77296676	      1.31628887	     -6.29006445	      4.30936802	    -12.60272350	      7.37993311	     77.02925174	     84.71009448	      4.01618963	     -8.03720192	     23.30658431	     26.09937907	     65.20451207
      0.00416670	      2.83355161	     -2.00840245	     -0.23903939	     -0.89519868	      1.26845960	     -0.08486064	     -4.50520890	      3.12548437	      0.97182010	      8.06279056	      0.14072224	      8.33040228	    -12.94160042	     -7.03190536	     -8.28448921	     -3.01316386	      2.99806181	      0.52839573	      0.00922225	      7.85193340	     -5.44228914	     -7.03190536	     -8.06166829	      1.18657450	     -6.66116181	      4.79573020	    -12.15071851	      7.60696770	     78.14647272	     78.21974209	      4.02997359	     -7.71336268	     20.67493448	     24.68121912	     62.84453009
      0.00833330	      1.95410011	     -1.55445039	     -0.45555357	     -0.89527017	      1.26688057	     -0.08616768	     -3.63003234	      2.76297061	      0.88438972	      7.65676930	      0.13363583	      8.41570010	    -13.48449490	     -7.04156487	     -7.39738214	     -2.55665760	      3.11600857	      0.43830530	      0.00764987	      8.33580526	     -4.79904457	     -7.04156487	     -7.43529493	      0.43650302	     -6.47121782	      5.03086255	    -11.99782738	      7.38192198	     79.80383033	     78.99321947	      4.25311659	     -8.22036252	     20.46790252	     24.11106672	     63.01294497
      0.01250000	      2.40629194	     -1.35677319	     -0.31229981	     -0.89462949	      1.27825336	     -0.08600364	     -4.38505540	      2.52885989	      1.02342169	      7.02940875	      0.12268633	      7.76396647	    -13.80192370	     -7.06675062	     -7.96424759	     -2.30005509	      3.04722870	      0.31606467	      0.00551637	      8.27069470	     -3.95437109	     -7.06675062	     -8.40415615	     -0.02771742	     -6.42060908	      5.04536146	    -12.08409198	      7.64543029	     80.86521411	     79.60263745	      4.84392790	     -8.42229516	     20.75429909	     23.33234290	     63.41169473
      0.01666670	      2.24004517	     -1.24593637	     -0.14539318	     -0.89832203	      1.27855743	     -0.08669991	     -4.33515350	      2.40159971	      0.85132883	      6.51170317	      0.11365066	      7.54936068	    -13.63454594	     -7.07167456	     -7.71587398	     -2.15303780	      3.20866749	      0.28509657	      0.00497587	      7.88397035	     -3.86805529	     -7.07167456	     -8.70437558	     -0.16678640	     -6.69402317	      5.50900106	    -12.13290151	      8.12912050	     82.64486466	     80.09745453	      5.19527592	     -8.58235161	     21.27277057	     23.29287373	     63.76250305
      0.02083330	      2.83587989	     -1.27099839	     -0.04675606	     -0.90010016	      1.27480497	     -0.08563718	     -5.05316637	      2.45539797	      1.04967321	      6.11415236	      0.10671209	      7.33976830	    -13.93351745	     -7.15946352	     -8.25306281	     -2.16596961	      3.69712565	      0.26925310	      0.00469935	      7.95873182	     -3.97673344	     -7.15946352	     -9.96465065	     -0.10598905	     -5.90743018	      5.22374348	    -12.73317888	      7.43007117	     86.42554404	     83.29426094	      6.62704969	     -9.12602258	     26.16107503	     23.49026662	     66.66876783
      0.02500000	      2.88724305	     -1.28085016	      0.04142555	     -0.89862436	      1.27573533	     -0.08734383	     -5.18296961	      2.46596593	      1.06817516	      5.80477757	      0.10131248	      7.14718022	    -13.98528332	     -7.16590592	     -8.24857880	     -2.12640183	      3.78343947	      0.26855063	      0.00468709	      8.24216127	     -3.54727137	     -7.16590592	    -10.18037439	     -0.03096546	     -6.33972806	      5.64798853	    -13.07682930	      8.07879353	     88.61320420	     83.86176329	      6.70090304	     -9.14991210	     26.48006209	     23.59732180	     66.88508135
      0.02916670	      3.22335329	     -1.30860662	     -0.07685841	     -0.89993380	      1.27571324	     -0.08692738	     -5.61935138	      2.50364678	      1.39929906	      5.48762581	      0.09577714	      6.90293439	    -14.56000594	     -7.24130472	     -8.60854560	     -2.11608728	      3.79390835	      0.26134553	      0.00456134	      8.62040054	     -3.31444135	     -7.24130472	    -10.78679134	     -0.04452593	     -5.87942021	      5.37936029	    -13.27350876	      7.42413453	     91.43322858	     86.49196998	      7.28056652	     -9.57189518	     29.06487058	     24.06074922	     67.72425812
      0.03333330	      3.36775831	     -1.31639851	     -0.03905484	     -0.89936347	      1.27181517	     -0.08524821	     -5.78312203	      2.54941427	      1.55659365	      5.38478964	      0.09398231	      7.04938313	    -14.52566680	     -7.30014074	     -8.71476885	     -2.14014743	      4.19879987	      0.26419005	      0.00461099	      8.78694717	     -3.58520098	     -7.30014074	    -10.96293288	     -0.03862172	     -5.76020831	      5.36819978	    -13.50705968	      7.25682303	     93.96410548	     87.76156181	      7.48116883	     -9.98206205	     30.90618207	     24.51549156	     67.09074061
      0.03750000	      3.55284318	     -1.30966112	     -0.06034865	     -0.89855587	      1.27010855	     -0.08623572	     -6.04546900	      2.55362369	      1.67069635	      5.31442695	      0.09275425	      7.26836977	    -14.45122009	     -7.33726620	     -8.98222997	     -2.15026777	      4.33103337	      0.26895842	      0.00469421	      9.06748210	     -3.45964563	     -7.33726620	    -11.05134831	     -0.04274029	     -6.11950267	      6.10576389	    -13.90166092	      8.10148191	     95.89638977	     85.66282086	      7.12625810	    -10.34766213	     30.99567788	     25.20753543	     66.27663701
      0.04166670	      3.77150311	     -1.33934953	     -0.07402054	     -0.89926438	      1.26522640	     -0.08624888	     -6.27472670	      2.59720161	      1.35725498	      5.38432589	      0.09397421	      7.90282917	    -13.82334490	     -7.38192826	     -9.26464781	     -2.20896325	      4.25769790	      0.27625152	      0.00482150	      9.72653247	     -2.87539828	     -7.38192826	    -11.15927586	      0.01623716	     -6.50327216	      6.85743807	    -14.29778491	      8.79962816	     97.82448686	     82.39126557	      6.72945858	    -10.77156595	     31.05685226	     26.13979870	     65.08630648
      0.04583330	      3.54559186	     -1.31835099	     -0.13277729	     -0.89946871	      1.26159854	     -0.08449290	     -5.96398208	      2.66295582	      2.57945200	      5.52292339	      0.09639320	      7.47030483	    -15.81398120	     -7.42392535	     -9.02773700	     -2.25486235	      5.02663907	      0.28795135	      0.00502570	      9.60298328	     -4.23154870	     -7.42392535	    -10.81902872	     -0.04939937	     -5.18003121	      6.06800641	    -14.75476227	      6.82194375	    101.14014847	     87.45303016	      7.93193582	    -11.34485240	     37.05415590	     26.03079684	     63.65848957
      0.05000000	      3.48181412	     -1.30306484	     -0.13526547	     -0.89832952	      1.26440704	     -0.08468201	     -5.89740201	      2.70225765	      2.80029517	      5.58917667	      0.09754954	      7.63094986	    -16.05007741	     -7.44549312	     -9.02333274	     -2.29807653	      5.40692879	      0.29219651	      0.00509979	      9.71614841	     -4.44823048	     -7.44549312	    -10.62279459	     -0.09288518	     -5.12463346	      6.52487731	    -15.03419154	      6.63822864	    103.02368517	     86.06455898	      7.74398825	    -11.61397591	     37.28526308	     26.64855840	     62.00939864
      0.05416670	      3.40021327	     -1.34711041	     -0.08987743	     -0.89798785	      1.26683975	     -0.08471399	     -5.80192004	      2.80634132	      3.05087487	      5.62341722	      0.09814715	      7.99860361	    -15.97849413	     -7.46774156	     -8.95894138	     -2.41262318	      5.58246659	      0.29667850	      0.00517802	      9.82895902	     -4.59281802	     -7.46774156	    -10.39359763	     -0.07588837	     -4.83556757	      6.86225970	    -15.31977771	      6.19123198	    104.68279781	     88.58511538	      8.20865818	    -11.92716706	     40.55135200	     26.48422799	     58.35380322
      0.05833330	      3.29887503	     -1.37739643	     -0.11265207	     -0.89763143	      1.26440199	     -0.08302218	     -5.73244607	      2.87709585	      3.27501027	      5.55712214	      0.09699008	      7.91499762	    -16.39453024	     -7.47485419	     -8.87199727	     -2.50364091	      5.77542695	      0.29342913	      0.00512130	      9.89859724	     -4.71277694	     -7.47485419	    -10.18143965	     -0.15713155	     -4.84289190	      7.67094209	    -15.56417252	      6.39397345	    106.19158197	     86.23223386	      8.11207098	    -12.14104687	     40.53473754	     26.70037154	     57.79960785
      0.06250000	      3.13560254	     -1.42941136	     -0.20239772	     -0.89756554	      1.26300694	     -0.08277306	     -5.56262341	      2.96553932	      3.40755855	      5.51232313	      0.09620819	      7.73595984	    -16.89238391	     -7.47910831	     -8.70348424	     -2.57988558	      5.84638543	      0.28973935	      0.00505691	      9.94469516	     -4.77968668	     -7.47910831	     -9.88377435	     -0.22895801	     -4.59278518	      8.38534518	    -15.87890379	      6.08841627	    107.58758690	     85.67123108	      8.30754717	    -12.29431558	     41.65380417	     26.58379373	     56.86229876
